<svg xmlns="http://www.w3.org/2000/svg" xmlns:xlink="http://www.w3.org/1999/xlink" width="512" height="512" viewBox="0 0 512 512">
  <defs>
    <clipPath id="clip-colored_no_bg">
      <rect width="512" height="512"/>
    </clipPath>
  </defs>
  <g id="colored_no_bg" clip-path="url(#clip-colored_no_bg)">
    <path id="Tracé_1" data-name="Tracé 1" d="M161.775,123.046A30.578,30.578,0,0,0,192.36,92.478a30.142,30.142,0,0,0-8.952-21.4,189.894,189.894,0,0,0-51.056,28.91,30.349,30.349,0,0,0,29.423,23.055ZM91.5,144.409a189.1,189.1,0,0,0-24.947,55.2,29.361,29.361,0,0,0,9.8,1.741A30.454,30.454,0,0,0,91.5,144.409Zm70.273-4.207a30.576,30.576,0,1,0,21.621,8.955A30.575,30.575,0,0,0,161.775,140.2Zm84.771-78.309a30.576,30.576,0,1,0,21.621,8.956A30.579,30.579,0,0,0,246.546,61.893Zm85.419,61.153A30.47,30.47,0,0,0,362.2,95.8a189.9,189.9,0,0,0-50.113-26.327,30.216,30.216,0,0,0-10.694,23,30.561,30.561,0,0,0,30.568,30.568ZM246.546,140.2a30.574,30.574,0,1,0,21.621,8.955A30.579,30.579,0,0,0,246.546,140.2Zm85.419,0a30.576,30.576,0,1,0,21.62,8.955A30.576,30.576,0,0,0,331.965,140.2ZM76.357,218.426a30.42,30.42,0,0,0-14.43,3.761,187.561,187.561,0,0,0,0,53.631,30.516,30.516,0,1,0,14.43-57.392Zm85.418,0a30.578,30.578,0,1,0,21.621,8.956A30.576,30.576,0,0,0,161.775,218.426Zm-85.418,78.3a29.627,29.627,0,0,0-9.785,1.725,188.959,188.959,0,0,0,25.023,55.279,30.534,30.534,0,0,0-15.238-57Zm85.418,0a30.576,30.576,0,1,0,21.621,8.955A30.575,30.575,0,0,0,161.775,296.727Zm84.771-78.3a30.576,30.576,0,1,0,21.621,8.956A30.58,30.58,0,0,0,246.546,218.426Zm85.419,0a30.578,30.578,0,1,0,21.62,8.956A30.577,30.577,0,0,0,331.965,218.426Zm-85.419,78.3a30.574,30.574,0,1,0,21.621,8.955A30.579,30.579,0,0,0,246.546,296.727Zm85.419,0a30.576,30.576,0,1,0,21.62,8.955A30.576,30.576,0,0,0,331.965,296.727Zm82.027-95.381a29.917,29.917,0,0,0,18.175-6.209,189.542,189.542,0,0,0-25.772-53.85,30.506,30.506,0,0,0,7.6,60.059ZM439.167,231.7a30.576,30.576,0,1,0,0,34.6c.522-5.713.833-11.443.833-17.3C440,243.172,439.7,237.4,439.167,231.7Zm-55.751,95.6a30.5,30.5,0,0,0,22.937,29.5,189,189,0,0,0,25.822-53.909A30.153,30.153,0,0,0,414,296.752,30.545,30.545,0,0,0,383.416,327.3ZM163.147,376.954a30.408,30.408,0,0,0-29.247,22.28,190,190,0,0,0,51.922,28.574,30.145,30.145,0,0,0,7.9-20.278,30.567,30.567,0,0,0-30.576-30.576Zm84.771,0a30.584,30.584,0,1,0,21.626,8.958A30.584,30.584,0,0,0,247.918,376.954Zm85.418,0a30.53,30.53,0,0,0-21.952,51.8,189.336,189.336,0,0,0,51.738-27.211A30.406,30.406,0,0,0,333.336,376.954Z" transform="translate(6 6.107)" fill="#0077b6" stroke="#fff" stroke-width="0"/>
  </g>
</svg>
